<svg xmlns="http://www.w3.org/2000/svg" width="96" height="96" viewBox="0 0 96 96" role="img" aria-label="HMS">
  <defs>
    <linearGradient id="g" x1="0" y1="0" x2="1" y2="1">
      <stop offset="0" stop-color="#10b981"/>
      <stop offset="0.5" stop-color="#3b82f6"/>
      <stop offset="1" stop-color="#6366f1"/>
    </linearGradient>
  </defs>
  <rect x="8" y="8" width="80" height="80" rx="22" fill="url(#g)"/>
  <path d="M48 22c-1.8 0-3.2 1.4-3.2 3.2v11.6H33.2c-1.8 0-3.2 1.4-3.2 3.2v7c0 1.8 1.4 3.2 3.2 3.2h11.6v11.6c0 1.8 1.4 3.2 3.2 3.2h7c1.8 0 3.2-1.4 3.2-3.2V53.2h11.6c1.8 0 3.2-1.4 3.2-3.2v-7c0-1.8-1.4-3.2-3.2-3.2H58.2V25.2c0-1.8-1.4-3.2-3.2-3.2h-7z" fill="#ffffff" opacity="0.95"/>
  <text x="48" y="88" text-anchor="middle" font-family="Inter, ui-sans-serif, system-ui" font-size="10" font-weight="800" fill="#0f172a" opacity="0.0">HMS</text>
</svg>

